<svg width="90" height="90" viewBox="0 0 90 90" fill="none" xmlns="http://www.w3.org/2000/svg">
<circle cx="85" cy="45" r="5" fill="#ff7a00"/>
<path d="M45 15L51.7354 35.7295H73.5317L55.8981 48.541L62.6336 69.2705L45 56.459L27.3664 69.2705L34.1019 48.541L16.4683 35.7295H38.2646L45 15Z" fill="#ff7a00"/>
<path fill-rule="evenodd" clip-rule="evenodd" d="M49 5C49 7.76143 46.7614 10 44 10V10.014C25.1325 10.5434 10 26.0045 10 45C10 64.33 25.67 80 45 80C61.9433 80 76.0746 67.9607 79.3059 51.9701C80.8571 53.2389 82.8397 54 85 54C86.5607 54 88.0286 53.6027 89.3082 52.9038C85.5726 73.9876 67.1562 90 45 90C20.1472 90 0 69.8528 0 45C0 20.6484 19.3428 0.814484 43.5023 0.0244598C43.666 0.00828552 43.832 0 44 0C46.7614 0 49 2.23857 49 5Z" fill="#ff7a00"/>
</svg>
